<svg xmlns="http://www.w3.org/2000/svg" width="150" height="150" viewBox="0 0 150 150"><rect width="100%" height="100%" fill="#DDDDDD"/><path fill="#999999" d="M34.065 79.425h7.52v2.89h-11.01v-18.8h3.49v15.91Zm15.41-10.66q1.48 0 2.7.48 1.21.49 2.08 1.37.86.88 1.33 2.16.47 1.27.47 2.84 0 1.59-.47 2.86-.47 1.28-1.33 2.18-.87.89-2.08 1.37-1.22.49-2.7.49-1.5 0-2.72-.49-1.22-.48-2.08-1.37-.87-.9-1.34-2.18-.48-1.27-.48-2.86 0-1.57.48-2.84.47-1.28 1.34-2.16.86-.88 2.08-1.37 1.22-.48 2.72-.48Zm0 11.27q1.66 0 2.46-1.11.8-1.12.8-3.28 0-2.16-.8-3.29t-2.46-1.13q-1.69 0-2.5 1.14-.82 1.14-.82 3.28 0 2.15.82 3.27.81 1.12 2.5 1.12Zm16.08-1.17v-2.24q-1.39.06-2.34.24-.95.17-1.52.44-.57.28-.82.64-.25.37-.25.79 0 .85.5 1.21.5.37 1.31.37.99 0 1.71-.36t1.41-1.09Zm-6.79-7-.57-1.03q2.3-2.11 5.54-2.11 1.17 0 2.09.39.93.38 1.56 1.06.64.69.97 1.64.33.94.33 2.08v8.42h-1.45q-.46 0-.7-.14-.25-.13-.39-.55l-.29-.96q-.51.45-.99.8-.48.34-1 .58-.52.23-1.11.35-.59.13-1.31.13-.84 0-1.56-.23-.71-.23-1.23-.68-.52-.46-.81-1.13-.28-.68-.28-1.58 0-.5.16-1 .17-.5.56-.96.38-.45.99-.86.61-.4 1.5-.7.89-.3 2.08-.49 1.18-.19 2.7-.22v-.78q0-1.34-.57-1.99-.57-.64-1.65-.64-.78 0-1.3.18-.51.18-.9.41-.39.23-.71.41-.32.18-.71.18-.33 0-.57-.17-.23-.18-.38-.41Zm21.31 6.5v-5.98q-.54-.67-1.19-.94-.64-.27-1.38-.27-.73 0-1.32.27-.58.27-1 .83-.41.55-.63 1.4-.22.85-.22 2.01 0 1.17.18 1.98.19.81.54 1.33.35.51.86.74.51.23 1.13.23 1 0 1.71-.42.7-.42 1.32-1.18Zm0-15.37h3.21v19.32h-1.96q-.64 0-.81-.59l-.27-1.28q-.8.92-1.85 1.49-1.05.58-2.44.58-1.09 0-2-.46-.91-.46-1.57-1.32-.65-.86-1.01-2.14-.36-1.27-.36-2.91 0-1.48.4-2.76.41-1.27 1.16-2.21.75-.93 1.81-1.46 1.05-.53 2.36-.53 1.12 0 1.91.36.8.35 1.42.94v-7.03Zm6.49 5.98h3.22v13.34h-3.22v-13.34Zm3.66-3.89q0 .42-.16.78-.17.37-.45.64t-.66.44q-.38.16-.81.16-.41 0-.78-.16-.37-.17-.65-.44-.27-.27-.43-.64-.16-.36-.16-.78 0-.42.16-.8.16-.38.43-.65.28-.27.65-.44.37-.16.78-.16.43 0 .81.16.38.17.66.44t.45.65q.16.38.16.8Zm5.62 4.48.22 1.05q.41-.4.85-.75.45-.34.95-.58.5-.24 1.08-.38.57-.14 1.24-.14 1.1 0 1.94.37.85.37 1.41 1.04.57.67.86 1.6.29.93.29 2.05v8.49h-3.21v-8.49q0-1.22-.56-1.89-.56-.67-1.7-.67-.83 0-1.56.38-.73.37-1.38 1.02v9.65h-3.21v-13.34h1.96q.63 0 .82.59Zm16.76 5.76q.6 0 1.04-.17.44-.16.73-.45.3-.28.44-.68.15-.41.15-.89 0-.99-.59-1.56-.59-.58-1.77-.58-1.18 0-1.78.58-.59.57-.59 1.56 0 .47.15.87.15.41.44.7.3.29.74.45.45.17 1.04.17Zm3.63 7.59q0-.39-.24-.64-.23-.25-.64-.38-.4-.14-.94-.2-.54-.07-1.14-.1l-1.25-.06q-.64-.03-1.26-.1-.53.29-.86.7-.33.4-.33.93 0 .36.17.66.18.31.56.53.39.22 1 .34.61.13 1.49.13.9 0 1.55-.14t1.07-.38q.43-.24.62-.57.2-.33.2-.72Zm-.64-13.48h3.83v1.19q0 .57-.69.7l-1.19.23q.27.68.27 1.5 0 .99-.4 1.79-.39.8-1.09 1.36-.71.56-1.66.86-.96.31-2.06.31-.39 0-.76-.04-.36-.04-.71-.1-.62.37-.62.84 0 .4.37.59.37.19.98.27.61.08 1.39.1.78.02 1.6.08.82.07 1.6.23.78.16 1.39.51.61.35.98.96.37.6.37 1.55 0 .89-.44 1.72-.43.83-1.26 1.48-.82.65-2.03 1.05-1.2.39-2.73.39-1.51 0-2.63-.29-1.12-.29-1.86-.78-.74-.49-1.1-1.12-.37-.64-.37-1.33 0-.94.57-1.57.56-.63 1.55-1-.53-.28-.84-.73-.31-.46-.31-1.2 0-.3.11-.62.11-.31.32-.63.22-.31.54-.59.33-.28.77-.5-1.02-.54-1.59-1.45-.58-.91-.58-2.14 0-.98.39-1.78.4-.8 1.11-1.37.71-.56 1.68-.86.96-.3 2.11-.3.86 0 1.61.17.75.18 1.38.52Z"/></svg>